<svg width="460" height="444" viewBox="0 0 460 444" fill="none" xmlns="http://www.w3.org/2000/svg">
<path d="M205.993 139.966C220.694 139.966 239.311 134.901 239.311 134.901C266.042 74.654 282.162 52.4761 311.205 15.9049C331.851 84.6381 345.032 141.52 357.068 213.318L400.452 205.556L374.058 237.784L442.756 257.823L386.097 298.018C406.841 316.806 412.346 319.915 412.346 319.915C412.346 319.915 388.032 330.506 374.058 344.267C360.084 358.027 341.642 365.305 311.205 379.922L348.407 436.111H162.459L169.25 394.777C122.134 397.381 94.8373 361.532 44.7024 374.134L72.2024 344.267L34.786 329.511C57.0979 319.594 64.5351 307.199 64.5351 307.199L24.8696 279.929L72.2024 271.898L80.6493 237.784C44.444 187.703 31.3989 148.995 11.2346 75.4032C66.6876 97.7788 95.8658 119.443 135.189 155.974C142.653 151.411 155.452 146.474 169.25 145.273L161.902 125.677L205.993 139.966Z" fill="#9855FF" stroke="white" stroke-width="15"/>
<path d="M169.403 245.48C194.579 251.22 210.2 275.833 204.635 300.243C199.07 324.652 174.325 340.063 149.148 334.323C123.972 328.583 108.351 303.97 113.916 279.56C119.481 255.151 144.227 239.74 169.403 245.48Z" fill="black" stroke="white" stroke-width="15.0591"/>
<ellipse cx="174.659" cy="279.894" rx="12.7735" ry="13.1763" transform="rotate(12.8429 174.659 279.894)" fill="white"/>
<ellipse cx="141.153" cy="304.848" rx="7.88957" ry="8.13832" transform="rotate(12.8429 141.153 304.848)" fill="white"/>
<path d="M132.809 251.783C125.004 250.392 120.979 248.924 115.462 243.01" stroke="white" stroke-width="3.79853"/>
<path d="M129.298 257.639C121.371 257.614 117.153 256.862 110.699 251.988" stroke="white" stroke-width="3.79853"/>
<path d="M123.064 261.517C115.243 262.81 113.044 264.779 105.87 261.046" stroke="white" stroke-width="3.79853"/>
<path d="M273.584 215.847C248.408 221.587 232.787 246.201 238.352 270.61C243.917 295.02 268.662 310.431 293.839 304.691C319.015 298.951 334.636 274.337 329.071 249.928C323.506 225.519 298.76 210.108 273.584 215.847Z" fill="black" stroke="white" stroke-width="15.0591"/>
<ellipse cx="12.7735" cy="13.1763" rx="12.7735" ry="13.1763" transform="matrix(-0.974983 0.222279 0.222279 0.974983 277.854 234.576)" fill="white"/>
<ellipse cx="7.88957" cy="8.13832" rx="7.88957" ry="8.13832" transform="matrix(-0.974983 0.222279 0.222279 0.974983 307.718 265.527)" fill="white"/>
<path d="M310.178 222.15C317.983 220.759 322.008 219.291 327.525 213.378" stroke="white" stroke-width="3.79853"/>
<path d="M313.689 228.007C321.616 227.982 325.834 227.23 332.288 222.355" stroke="white" stroke-width="3.79853"/>
<path d="M319.923 231.885C327.744 233.178 329.943 235.147 337.117 231.413" stroke="white" stroke-width="3.79853"/>
<path d="M294.782 117.776C294.782 117.776 292.993 122.825 294.782 136.739C296.571 150.654 324.281 136.739 324.281 136.739" stroke="white" stroke-width="7.98624"/>
<path d="M279.882 115.291C279.882 115.291 282.593 119.912 283.464 133.914C284.335 147.915 254.495 139.485 254.495 139.485" stroke="white" stroke-width="7.98624"/>
<path d="M319.093 153.761C319.093 153.761 313.895 152.468 300.219 155.595C286.543 158.721 303.072 184.956 303.072 184.956" stroke="white" stroke-width="7.98624"/>
<path d="M254.409 155.911C254.409 155.911 259.286 153.697 273.303 154.29C287.319 154.883 275.824 183.682 275.824 183.682" stroke="white" stroke-width="7.98624"/>
<path d="M223.778 332.678L250.188 318.665" stroke="white" stroke-width="8"/>
</svg>
