<svg width="460" height="444" viewBox="0 0 460 444" fill="none" xmlns="http://www.w3.org/2000/svg">
<path d="M205.993 139.966C220.694 139.966 239.311 134.901 239.311 134.901C266.042 74.654 282.162 52.4761 311.205 15.9049C331.851 84.6381 345.032 141.52 357.068 213.318L400.452 205.556L374.058 237.784L442.756 257.823L386.097 298.018C406.841 316.806 412.346 319.915 412.346 319.915C412.346 319.915 388.032 330.506 374.058 344.267C360.084 358.027 341.642 365.305 311.205 379.922L348.407 436.111H162.459L169.25 394.777C122.134 397.381 94.8373 361.532 44.7024 374.134L72.2024 344.267L34.786 329.511C57.0978 319.594 64.5351 307.199 64.5351 307.199L24.8696 279.929L72.2024 271.898L80.6493 237.784C44.444 187.703 31.3989 148.995 11.2346 75.4032C66.6876 97.7788 95.8658 119.443 135.189 155.974C142.653 151.411 155.452 146.474 169.25 145.273L161.902 125.677L205.993 139.966Z" fill="#9855FF" stroke="white" stroke-width="15"/>
<path d="M219.209 326.551C232.896 327.808 238.944 325.197 245.619 312.537" stroke="white" stroke-width="8"/>
<path d="M311.5 313.822L307.894 326.279M326.982 310.975L325.006 323.132M341.65 308.278L339.673 320.435" stroke="white" stroke-width="8" stroke-linecap="round"/>
<path d="M123.234 350.888L117.759 362.643M138.97 350.45L135.152 362.16M153.878 350.036L150.059 361.745" stroke="white" stroke-width="8" stroke-linecap="round"/>
<path d="M167.119 242.849C192.295 248.589 207.916 273.202 202.351 297.612C196.786 322.021 172.04 337.432 146.864 331.692C121.688 325.953 106.067 301.339 111.632 276.929C117.197 252.52 141.942 237.109 167.119 242.849Z" fill="black" stroke="white" stroke-width="15.0591"/>
<ellipse cx="172.374" cy="277.263" rx="12.7735" ry="13.1763" transform="rotate(12.8429 172.374 277.263)" fill="white"/>
<ellipse cx="138.868" cy="302.217" rx="7.88957" ry="8.13832" transform="rotate(12.8429 138.868 302.217)" fill="white"/>
<path d="M130.524 249.152C122.72 247.761 118.694 246.293 113.177 240.379" stroke="white" stroke-width="3.79853"/>
<path d="M127.014 255.008C119.086 254.983 114.868 254.231 108.414 249.357" stroke="white" stroke-width="3.79853"/>
<path d="M120.78 258.886C112.959 260.18 110.76 262.148 103.585 258.415" stroke="white" stroke-width="3.79853"/>
<path d="M271.299 213.217C246.123 218.956 230.502 243.57 236.067 267.979C241.632 292.389 266.378 307.8 291.554 302.06C316.73 296.32 332.351 271.707 326.786 247.297C321.221 222.888 296.475 207.477 271.299 213.217Z" fill="black" stroke="white" stroke-width="15.0591"/>
<ellipse cx="12.7735" cy="13.1763" rx="12.7735" ry="13.1763" transform="matrix(-0.974983 0.222279 0.222279 0.974983 275.569 231.945)" fill="white"/>
<ellipse cx="7.88957" cy="8.13832" rx="7.88957" ry="8.13832" transform="matrix(-0.974983 0.222279 0.222279 0.974983 305.433 262.896)" fill="white"/>
<path d="M307.894 219.519C315.698 218.128 319.723 216.66 325.24 210.747" stroke="white" stroke-width="3.79853"/>
<path d="M311.404 225.376C319.331 225.351 323.549 224.599 330.003 219.724" stroke="white" stroke-width="3.79853"/>
<path d="M317.638 229.254C325.459 230.547 327.658 232.516 334.832 228.782" stroke="white" stroke-width="3.79853"/>
</svg>
